<svg width="100%" viewBox="0 0 680 270" xmlns="http://www.w3.org/2000/svg">
<defs>
  <marker id="arrow" viewBox="0 0 10 10" refX="8" refY="5" markerWidth="6" markerHeight="6" orient="auto-start-reverse">
    <path d="M2 1L8 5L2 9" fill="none" stroke="context-stroke" stroke-width="1.5" stroke-linecap="round" stroke-linejoin="round"/>
  </marker>
</defs>

<!-- Section label: TODAY -->
<text font-family="sans-serif" font-size="12" x="40" y="22" fill="#888">Today — JSON.parse(TextDecoder.decode(buf))</text>

<!-- network bytes -->
<rect x="40" y="34" width="112" height="44" rx="8" fill="#E1F5EE" stroke="#0F6E56" stroke-width="0.5"/>
<text font-family="sans-serif" font-size="14" font-weight="500" x="96" y="53" text-anchor="middle" dominant-baseline="central" fill="#085041">Network bytes</text>
<text font-family="sans-serif" font-size="12" x="96" y="69" text-anchor="middle" dominant-baseline="central" fill="#0F6E56">1× size</text>

<line x1="153" y1="56" x2="179" y2="56" stroke="#185FA5" stroke-width="1.5" marker-end="url(#arrow)" fill="none"/>

<!-- TextDecoder -->
<rect x="180" y="34" width="120" height="44" rx="8" fill="#E6F1FB" stroke="#185FA5" stroke-width="0.5"/>
<text font-family="sans-serif" font-size="14" font-weight="500" x="240" y="53" text-anchor="middle" dominant-baseline="central" fill="#0C447C">TextDecoder</text>
<text font-family="sans-serif" font-size="12" x="240" y="69" text-anchor="middle" dominant-baseline="central" fill="#185FA5">.decode()</text>

<line x1="301" y1="56" x2="327" y2="56" stroke="#185FA5" stroke-width="1.5" marker-end="url(#arrow)" fill="none"/>

<!-- JS string -->
<rect x="328" y="34" width="120" height="44" rx="8" fill="#FAEEDA" stroke="#BA7517" stroke-width="0.5"/>
<text font-family="sans-serif" font-size="14" font-weight="500" x="388" y="53" text-anchor="middle" dominant-baseline="central" fill="#633806">JS string</text>
<text font-family="sans-serif" font-size="12" x="388" y="69" text-anchor="middle" dominant-baseline="central" fill="#BA7517">2–3× size</text>

<line x1="449" y1="56" x2="475" y2="56" stroke="#185FA5" stroke-width="1.5" marker-end="url(#arrow)" fill="none"/>

<!-- JSON.parse -->
<rect x="476" y="34" width="104" height="44" rx="8" fill="#E6F1FB" stroke="#185FA5" stroke-width="0.5"/>
<text font-family="sans-serif" font-size="14" font-weight="500" x="528" y="53" text-anchor="middle" dominant-baseline="central" fill="#0C447C">JSON.parse</text>
<text font-family="sans-serif" font-size="12" x="528" y="69" text-anchor="middle" dominant-baseline="central" fill="#185FA5">may throw</text>

<line x1="581" y1="56" x2="607" y2="56" stroke="#185FA5" stroke-width="1.5" marker-end="url(#arrow)" fill="none"/>

<!-- object -->
<rect x="608" y="34" width="56" height="44" rx="8" fill="#E1F5EE" stroke="#0F6E56" stroke-width="0.5"/>
<text font-family="sans-serif" font-size="14" font-weight="500" x="636" y="56" text-anchor="middle" dominant-baseline="central" fill="#085041">Object</text>

<!-- Memory bar: today -->
<text font-family="sans-serif" font-size="12" x="40" y="102" fill="#888">Peak memory:</text>
<rect x="140" y="90" width="500" height="18" rx="4" fill="#f0f0ec" stroke="#ccc" stroke-width="0.5"/>
<rect x="140" y="90" width="120" height="18" rx="4" fill="#1D9E75" opacity="0.8"/>
<text font-family="sans-serif" font-size="11" font-weight="500" x="200" y="103" text-anchor="middle" fill="#04342C">buffer 1×</text>
<rect x="260" y="90" width="240" height="18" rx="0" fill="#EF9F27" opacity="0.85"/>
<text font-family="sans-serif" font-size="11" font-weight="500" x="380" y="103" text-anchor="middle" fill="#412402">string 2–3× (live simultaneously)</text>
<rect x="500" y="90" width="140" height="18" rx="0" fill="#185FA5" opacity="0.75"/>
<text font-family="sans-serif" font-size="11" font-weight="500" x="570" y="103" text-anchor="middle" fill="#E6F1FB">object 3–4×+</text>
<text font-family="sans-serif" font-size="11" x="644" y="103" fill="#888">≈ 4–7×</text>

<!-- Divider -->
<line x1="40" y1="124" x2="640" y2="124" stroke="#ccc" stroke-width="0.5" stroke-dasharray="4 4"/>

<!-- Section label: PROPOSAL -->
<text font-family="sans-serif" font-size="12" x="40" y="146" fill="#888">Proposal — JSON.parseBinary(buf)</text>

<!-- network bytes -->
<rect x="40" y="158" width="112" height="44" rx="8" fill="#E1F5EE" stroke="#0F6E56" stroke-width="0.5"/>
<text font-family="sans-serif" font-size="14" font-weight="500" x="96" y="177" text-anchor="middle" dominant-baseline="central" fill="#085041">Network bytes</text>
<text font-family="sans-serif" font-size="12" x="96" y="193" text-anchor="middle" dominant-baseline="central" fill="#0F6E56">1× size</text>

<line x1="153" y1="180" x2="237" y2="180" stroke="#1D9E75" stroke-width="1.5" marker-end="url(#arrow)" fill="none"/>

<!-- parseBinary -->
<rect x="238" y="158" width="164" height="44" rx="8" fill="#EAF3DE" stroke="#3B6D11" stroke-width="0.5"/>
<text font-family="sans-serif" font-size="14" font-weight="500" x="320" y="177" text-anchor="middle" dominant-baseline="central" fill="#173404">JSON.parseBinary</text>
<text font-family="sans-serif" font-size="12" x="320" y="193" text-anchor="middle" dominant-baseline="central" fill="#3B6D11">no intermediate string</text>

<line x1="403" y1="180" x2="457" y2="180" stroke="#1D9E75" stroke-width="1.5" marker-end="url(#arrow)" fill="none"/>

<!-- result object -->
<rect x="458" y="158" width="130" height="44" rx="8" fill="#E1F5EE" stroke="#0F6E56" stroke-width="0.5"/>
<text font-family="sans-serif" font-size="14" font-weight="500" x="523" y="177" text-anchor="middle" dominant-baseline="central" fill="#085041">{ok, value}</text>
<text font-family="sans-serif" font-size="12" x="523" y="193" text-anchor="middle" dominant-baseline="central" fill="#0F6E56">or {ok, message}</text>

<!-- Memory bar: proposal -->
<text font-family="sans-serif" font-size="12" x="40" y="226" fill="#888">Peak memory:</text>
<rect x="140" y="214" width="500" height="18" rx="4" fill="#f0f0ec" stroke="#ccc" stroke-width="0.5"/>
<rect x="140" y="214" width="120" height="18" rx="4" fill="#1D9E75" opacity="0.8"/>
<text font-family="sans-serif" font-size="11" font-weight="500" x="200" y="227" text-anchor="middle" fill="#04342C">buffer 1×</text>
<rect x="260" y="214" width="200" height="18" rx="0" fill="#185FA5" opacity="0.75"/>
<text font-family="sans-serif" font-size="11" font-weight="500" x="360" y="227" text-anchor="middle" fill="#E6F1FB">extracted strings + object</text>
<text font-family="sans-serif" font-size="11" x="644" y="227" fill="#888">≈ 2–3×</text>

<!-- Legend -->
<text font-family="sans-serif" font-size="11" x="40" y="256" fill="#888">Memory phases:</text>
<rect x="140" y="246" width="14" height="12" rx="2" fill="#1D9E75" opacity="0.8"/>
<text font-family="sans-serif" font-size="11" x="160" y="256" fill="#888">buffer</text>
<rect x="206" y="246" width="14" height="12" rx="2" fill="#EF9F27" opacity="0.85"/>
<text font-family="sans-serif" font-size="11" x="226" y="256" fill="#888">intermediate string</text>
<rect x="356" y="246" width="14" height="12" rx="2" fill="#185FA5" opacity="0.75"/>
<text font-family="sans-serif" font-size="11" x="376" y="256" fill="#888">parsed object</text>
</svg>
